<svg id="Layer_4" data-name="Layer 4" xmlns="http://www.w3.org/2000/svg" viewBox="0 0 567.37 356.18"><defs><style>.cls-1{fill:#dcdde0;}.cls-2{fill:#858fa9;}.cls-3{fill:#414355;}.cls-4{fill:#fcc18b;}.cls-5{fill:#ffa348;}.cls-6{fill:#fff;}.cls-7{fill:#2a9cc8;}.cls-8{font-size:8px;font-family:Lato-Thin, Lato;font-weight:200;opacity:0.5;}.cls-9{letter-spacing:-0.01em;}.cls-10{letter-spacing:-0.01em;}.cls-11{letter-spacing:-0.03em;}.cls-12{letter-spacing:-0.01em;}</style></defs><title>5illus-frise-chrono</title><rect class="cls-1" x="287" y="258" width="19" height="5" transform="translate(-254.69 366.66) rotate(-73.12)"/><rect class="cls-2" x="290" y="251" width="5" height="19" transform="translate(-253.58 -51.98) rotate(-9.17)"/><path class="cls-3" d="M303.83,272.5c0-.3-.54-.18-.83-.18-2.07,0-7,.09-7.84,2.56-1.37,3.93-2.66,7.91-3.93,11.87-.24.67-.48,1.34-.73,2l.1.05h0l0,.05h0c.19.18.3.21.35.2a1.52,1.52,0,0,0,0,.19.55.55,0,0,0,.4.52c.87.14,1.52.8,2.42.82a11.9,11.9,0,0,0,2.6-.11,5.65,5.65,0,0,0,3.87-2.68c1.41-2.22,1.88-5.09,2.52-7.59S304.21,275.5,303.83,272.5Z" transform="translate(-215.81 -101.91)"/><path class="cls-4" d="M304.67,261.54c-.63-2.92-3.9-3.36-6.33-3-3,.5-6.16,2.27-7.09,5.29s.25,3.79,2.71,2.66c0,.71.21,1.88,2,1.29,0,.51-.37,1.46,1.17,1.5.31,0-.59,2.08-.76,2.39-.39.72-.7,1.82-1.32,3.22-.38,1.1-.41,1.58.12,1.77,3.46,1.22,6.3.76,8.58-1.63.3-.31.71-5,.89-6.75A22.73,22.73,0,0,0,304.67,261.54Z" transform="translate(-215.81 -101.91)"/><path class="cls-3" d="M301.24,267.33c-.54.23-1,.52-1.55.79a11,11,0,0,1-1.75.79c-.93.34-2.23,0-1.35-1.16l.14-.15a12.63,12.63,0,0,0,1.32-1.22,6.91,6.91,0,0,0,1.55-1.55c.21-.32-.23-.6-.49-.38-.95.79-1.79,1.71-2.75,2.5s-2.64,1.38-1.85-.61a19.83,19.83,0,0,0,2-2.72,4,4,0,0,0,.37-.54c.26-.48-.38-1-.76-.59a17.11,17.11,0,0,0-1.53,2.07,9.73,9.73,0,0,1-1.87,2.2c-.73.43-1.48.33-1.64-.83a9.31,9.31,0,0,1,.2-1.39c0-.19-.25-.28-.3-.08-.38,1.36-.68,2.88,1.06,3.17a2.2,2.2,0,0,0,1.61-.55c-.21.83-.07,1.45.86,1.44a2.76,2.76,0,0,0,1-.2.77.77,0,0,0,.12.64c1.36,1.9,4.44-.23,5.87-1C301.85,267.79,301.61,267.18,301.24,267.33Z" transform="translate(-215.81 -101.91)"/><rect class="cls-1" x="325" y="268" width="19" height="5" transform="translate(-237.3 410.11) rotate(-73.12)"/><rect class="cls-1" x="371" y="272" width="19" height="5" transform="translate(-208.48 456.97) rotate(-73.12)"/><rect class="cls-1" x="575" y="271" width="19" height="5" transform="translate(-11.34 693.15) rotate(-79)"/><rect class="cls-1" x="476" y="269" width="19" height="5" transform="matrix(0.16, -0.99, 0.99, 0.16, -76.83, 604.73)"/><rect class="cls-1" x="706" y="263" width="19" height="5" transform="translate(37.82 771.13) rotate(-73.12)"/><rect class="cls-1" x="638" y="259" width="5" height="19" transform="translate(-243.44 -22.96) rotate(-6.9)"/><rect class="cls-1" x="736" y="254" width="5" height="19" transform="translate(-259.29 103.97) rotate(-15.42)"/><rect class="cls-1" x="680" y="255" width="5" height="19" transform="translate(-261.57 89.11) rotate(-15.42)"/><path class="cls-5" d="M232.64,251c-2,2.2-2.5,5.3-2.45,8.44a14.84,14.84,0,0,0-4.92-5.9c-2.36-1.59-7.58-2.95-7.83,1.44-.33,5.46,4.2,8.21,8.64,10.26a27.27,27.27,0,0,0,5.49,2.29c0,.08,0,.15,0,.2-.16,1.87-1.94,3.27-3.37,4.3-2.23,1.6-5,3-7.7,1.91-.94-.4-1.31,1-.64,1.5,2.64,2,6.42-.09,8.76-1.62a13.16,13.16,0,0,0,3.55-3.22,4.8,4.8,0,0,0,.82-2.94,2.08,2.08,0,0,0,1.24-.48c.23-.21-.09-.63-.34-.44a1.59,1.59,0,0,1-.94.28,14.09,14.09,0,0,0-.26-1.65.42.42,0,0,0-.29-.29,34.5,34.5,0,0,1-.11-9.89c.61-3.71,4.88-7.2,8-3.83,2.06,2.2,2,5.81.73,8.32-1.18,2.25-3.64,5.82-6.52,5.6-.9-.07-.9,1.34,0,1.4,3.51.24,6.18-3.63,7.69-6.31a9,9,0,0,0-.82-9.85C238.92,247.33,235,248.39,232.64,251Zm-14.07,6.86c-.36-1.25-.08-3.8,1.36-4.38a3.68,3.68,0,0,1,2.26.25,9.92,9.92,0,0,1,4.12,2.85c2.58,2.69,3.76,6.47,4.56,10-1.48-.51-3-1.37-3.81-1.7C223.78,263.54,219.63,261.56,218.57,257.88Z" transform="translate(-215.81 -101.91)"/><path class="cls-5" d="M781.63,269.38c-1.52,1.31-3.6.58-5.34.25a22.15,22.15,0,0,1-5.57-1.37c-1.75-.8-4.64-2.46-5.25-4.36a27.47,27.47,0,0,0-1.15-2.93s0-.07,0-.1l0,0a17,17,0,0,0,9.22-6.57c2-2.95,2-6.83-1.22-8.85-2.7-1.66-5.88,1.43-7.4,3.3-1.93,2.38-2.32,5-2.48,7.81-.82-3.26-1.66-6.61-3.72-9.16-1.78-2.19-5.51-3.35-7.22-.37-1.54,2.69,1.39,6.92,2.87,9,1.78,2.46,4.55,5.09,7.69,5.47v0a.85.85,0,0,0,.68.42,15.34,15.34,0,0,0,2.25,4.74,16.48,16.48,0,0,0,6.48,4.07,29.16,29.16,0,0,0,7,1.34c1.9.21,3.39,0,4.58-1.57C783.65,269.61,782.33,268.77,781.63,269.38Zm-11.51-22.82c2.09-.61,3.32,2,3.32,3.62s-1.32,3.5-2.4,4.75a15.39,15.39,0,0,1-7.14,4.15C764,254.13,764.54,248.16,770.12,246.56Zm-17.27,2.3c-.21-2.73,3-1.75,4.11-.59a11.66,11.66,0,0,1,1.93,3.53c1.13,2.71,1.61,5.63,2.62,8.39C757,258.62,753.2,253.32,752.85,248.86Z" transform="translate(-215.81 -101.91)"/><path class="cls-5" d="M232.87,267.48c10.78,2.73,22.29,3,33.34,3.74,7.27.46,14.53,1.07,21.81,1.36,18.55.74,37.13.94,55.68,1.19q54.68.74,109.34-.16c24.2-.38,48.36-1.58,72.56-2.08,25.84-.52,51.67-2.15,77.5-3.14,45.9-1.77,91.84-2.76,137.69-5.57,7.63-.47,15.25-1,22.88-1.32.64,0,.64-1,0-1-22,1-43.92,2.66-65.9,3.55-20.28.83-40.58,1.39-60.87,2.1-24.53.86-49.06,1.76-73.58,2.91-27.53,1.28-55.09,2-82.63,2.93-36.83,1.23-73.77,1.39-110.62,1.07-35.88-.31-71.71-.7-107.51-3.08-9.77-.65-19.9-1.05-29.43-3.46a.5.5,0,0,0-.26,1Z" transform="translate(-215.81 -101.91)"/><path class="cls-1" d="M344.5,284.25l9,99.75L428,372.25s-1.5-17.75-4.75-44.75c-1.77-14.75-9.25-50-9.25-50s-15.58.67-33.33,2.17C364.1,281.07,344.5,284.25,344.5,284.25Z" transform="translate(-215.81 -101.91)"/><path class="cls-1" d="M443.5,280.5s-.75,24.25-1.25,34.75-3.25,38-3.25,38,32.75,1.44,59.5.75c19.5-.5,29.5-4,29.5-4s2.25-22.5,2.5-35.25-.5-37.5-.5-37.5-27.92.17-43.67.42S443.5,280.5,443.5,280.5Z" transform="translate(-215.81 -101.91)"/><path class="cls-1" d="M546.25,278.5s1.42,15.42,1.42,30.17c0,24.33,1.66,49.33,1.66,49.33l69-4.33s-.08-16.17-2.33-37.92c-1-10-4.67-42.08-4.67-42.08s-15.08,1.33-24.58,2.08S546.25,278.5,546.25,278.5Z" transform="translate(-215.81 -101.91)"/><path class="cls-1" d="M624.75,273.25s-1,25.5-.75,33.25.75,16.75.75,16.75,24-.49,31.75-1.25a122.38,122.38,0,0,0,17.75-3s.75-11.75.5-19.25-3.25-28-3.25-28a171.42,171.42,0,0,0-20.75-1C642.25,271,624.75,273.25,624.75,273.25Z" transform="translate(-215.81 -101.91)"/><path class="cls-6" d="M461.94,304.44c-3.5,2.83-3.73,6.1-4.56,10.44-.84,4.66-2.21,12.12-1.88,16.79.33,5.33,4.33,5.33,9.33,6,6,.83,12.31.95,18.17,1.27,13.21.71,22.5,3.39,23.17-8.27.33-5-1-10.34-1.67-15.17-.5-4.5-1.17-10.17-6.17-11.67a28.07,28.07,0,0,0-8.33-.33c-3.33.17-5.48-.44-8.81-.44-4.5,0-9.19,0-13.69.38C466.67,303.44,461.94,304.44,461.94,304.44Z" transform="translate(-215.81 -101.91)"/><path class="cls-4" d="M506.46,298A134.65,134.65,0,0,0,490,296.74c-5.55-.07-11.67-.35-17.09,1a44.56,44.56,0,0,0-7.2,2.85,19.13,19.13,0,0,0-6.2,4.42c-.26.28,0,.81.39.67,7-2.39,14.58-2,21.83-1.8q5.22.1,10.42.45c2.94.19,6.09.12,8.8,1.41a4.73,4.73,0,0,1,.9.56c3.85-2,7.69-3.84,11.54-5.85C511.64,298.86,509,298.32,506.46,298Z" transform="translate(-215.81 -101.91)"/><path class="cls-2" d="M518.17,323.05c-.27-2.76-.67-5.5-1-8.25-.49-4-.79-8-2.11-11.83a5.8,5.8,0,0,0-1.62-2.48c-3.85,2-8.43,3-12.43,4.89,2.15,1.69,3.32,5.94,3.8,8.49.63,3.24.7,6.52,1.22,9.78a35.54,35.54,0,0,1,.26,9.33,9.51,9.51,0,0,1-4,6.84l-.53.17c-.44.14-.25.83.19.69a62.87,62.87,0,0,0,10.7-4.44c2.29-1.24,5.7-3.36,6-6.26A35.08,35.08,0,0,0,518.17,323.05Z" transform="translate(-215.81 -101.91)"/><path class="cls-3" d="M507.62,323.79a68.65,68.65,0,0,0-2.16-14.4c-1.88-7.05-9.06-6.77-15-7-7.13-.31-14.29-.39-21.42-.39s-10.83,1.95-12.59,9.12c-1.2,5.59-2,11.23-2.63,16.9-.36,3.1-.86,6,1.14,8.62,2.79,3.6,12.49,3.12,16.44,3.46,7.93.69,15.92,1.18,23.89,1.21,5.2,0,11.49-.19,12.53-6.45C508.39,331.33,507.78,327.32,507.62,323.79Zm-15.28,14.46c-5.85-.1-11.69-.47-17.52-.9-4.72-.35-9.49-.68-14.15-1.48-4.83-.83-4.32-4-3.87-7.88.63-5.41,1.38-10.78,2.52-16.1,1-3.91,2.14-6.36,6.42-6.82a51.45,51.45,0,0,1,5.69-.09q8.15,0,16.3.28c5.67.17,13.31-.79,15.1,5.91,1.85,6.89,1.93,14.24,2.11,21.33C505.12,339.42,497.26,338.33,492.34,338.25Z" transform="translate(-215.81 -101.91)"/><path class="cls-1" d="M465.88,307.38c-4.34.5-4.47,4.6-5,7.62-.63,3.5-1.07,6.26-.63,8,.63,2.5,6.92,2.33,9.75,2.5,3.33.33,18.5,1.13,22.83,1.33,7,.34,9-1.12,8.8-4.95-.14-3.08-.21-7.05-1.38-9.88-1.33-3.5-5.25-4.33-8.42-4.33-7.16,0-10.95-.42-18.2-.42A38.72,38.72,0,0,0,465.88,307.38Z" transform="translate(-215.81 -101.91)"/><circle class="cls-3" cx="248.32" cy="228.21" r="3"/><circle class="cls-3" cx="280.32" cy="230.21" r="3"/><polygon class="cls-5" points="273.56 232.46 255.06 231.51 255.06 226.59 273.81 227.59 273.56 232.46"/><path class="cls-5" d="M474.24,324.4l-1-.06c.13-2.68.23-5.36.34-8s.2-5.29.33-7.93l1,.05c-.14,2.64-.24,5.28-.33,7.92S474.37,321.71,474.24,324.4Z" transform="translate(-215.81 -101.91)"/><path class="cls-5" d="M477.23,324.54l-1-.05c.14-2.68.24-5.37.34-8.07s.2-5.28.33-7.91l1,.05c-.13,2.63-.23,5.27-.33,7.9S477.37,321.85,477.23,324.54Z" transform="translate(-215.81 -101.91)"/><path class="cls-5" d="M480.23,324.69l-1-.05q.19-4,.34-8.07c.1-2.64.2-5.28.33-7.91l1,0c-.13,2.63-.23,5.26-.33,7.9S480.36,322,480.23,324.69Z" transform="translate(-215.81 -101.91)"/><path class="cls-5" d="M483.22,324.84l-1,0c.13-2.69.23-5.39.34-8.09s.2-5.26.33-7.89l1,.05c-.13,2.62-.22,5.25-.32,7.88S483.36,322.15,483.22,324.84Z" transform="translate(-215.81 -101.91)"/><path class="cls-5" d="M486.22,325l-1-.05c.14-2.68.24-5.37.34-8.06s.2-5.28.33-7.92l1,0c-.13,2.64-.23,5.28-.33,7.92S486.36,322.31,486.22,325Z" transform="translate(-215.81 -101.91)"/><path class="cls-5" d="M489.22,325.14l-1-.05q.19-4,.34-8.06c.1-2.64.2-5.28.33-7.92l1,0c-.13,2.64-.23,5.28-.33,7.92S489.35,322.46,489.22,325.14Z" transform="translate(-215.81 -101.91)"/><path class="cls-3" d="M508.92,285.33a1.87,1.87,0,0,0-1.45,3l-1.13,1.31-1,1.11-.86,1c-1.69,2-5.42,6.39-7.07,8l-.29-.33c-1.1-1.25-2.23-2.55-3.18-3.7-.53-.63-1.06-1.25-1.61-1.88s-1.36-1.57-2.07-2.45a1.9,1.9,0,0,0,.46-1.23,1.84,1.84,0,1,0-1.83,1.87,1.6,1.6,0,0,0,.53-.09c.74.92,1.46,1.75,2.16,2.55.54.63,1.07,1.24,1.59,1.87,1,1.16,2.1,2.46,3.2,3.72l1,1.11.76-.65,0,0c1.68-1.67,5.32-6,7.18-8.15.39-.47.69-.82.85-1l1-1.11c.38-.43.78-.89,1.17-1.35a1.8,1.8,0,0,0,.66.13,1.88,1.88,0,0,0,0-3.75Z" transform="translate(-215.81 -101.91)"/><polygon class="cls-6" points="352.31 198.71 379.86 196.17 381.81 218.46 392.19 225.42 391.69 226.59 364.06 234.34 353.31 222.96 350.31 199.84 352.31 198.71"/><polygon class="cls-5" points="364.27 232.59 356.87 223.43 355.56 199.46 344.56 197.71 344.44 215.09 357.19 229.21 357.19 229.15 363.77 236.75 364.27 232.59"/><polygon class="cls-5" points="392.19 228.84 363.77 236.75 364.27 232.59 392.19 225.42 392.19 228.84"/><path class="cls-4" d="M570.88,301.75,596,298l-12.5-2a56.83,56.83,0,0,0-8.62.75c-5.25.69-14.5,2.88-14.5,2.88Z" transform="translate(-215.81 -101.91)"/><path class="cls-2" d="M573.88,306.88c-1.28,3.81-.25,10.37,1.62,12.75,2.69,3.4,12.62,2.1,16.75-1s3.88-14-1.5-16.25C587.4,301,575.71,301.35,573.88,306.88Z" transform="translate(-215.81 -101.91)"/><path class="cls-7" d="M577.83,327.74l-.16-1c3-.48,16.56-3.61,18.18-4.11l.3,1C594.39,324.14,580.9,327.26,577.83,327.74Z" transform="translate(-215.81 -101.91)"/><path class="cls-7" d="M579.83,329.74l-.16-1c3.05-.48,17.19-3.79,18.93-4.32l.3.95C597.14,325.93,582.89,329.26,579.83,329.74Z" transform="translate(-215.81 -101.91)"/><path class="cls-7" d="M581.68,332l-.19-1c3.8-.76,18.25-4.18,19.78-4.65l.29.95C600,327.8,585.64,331.2,581.68,332Z" transform="translate(-215.81 -101.91)"/><path class="cls-6" d="M586.82,304.93c2.26.51,3.66,4.46,3.7,6.32.07,2.92-1.83,4.81-3.7,6.74a.37.37,0,0,0,.36.62c3.22-.91,5.61-5.17,5.08-8.42-.26-1.64-2.9-7.69-5.52-5.91a.36.36,0,0,0,.08.65Z" transform="translate(-215.81 -101.91)"/><path class="cls-7" d="M650.91,280.46c12.61,7.22,12.64,25,.5,32.75-1.62,1-.12,3.63,1.51,2.58,14-9,14.11-29.56-.5-37.92a1.5,1.5,0,0,0-1.51,2.59Z" transform="translate(-215.81 -101.91)"/><path class="cls-7" d="M646.24,285.79c9.66,5.74,8.93,15.95.53,22.48-1.52,1.19.62,3.3,2.12,2.12,10-7.8,10-20.57-1.13-27.18a1.5,1.5,0,0,0-1.52,2.58Z" transform="translate(-215.81 -101.91)"/><path class="cls-7" d="M642.24,290.79c5.34,2.78,5.48,9.25,0,11.92-1.74.84-.21,3.43,1.52,2.58,7.45-3.62,7.26-13.32,0-17.08-1.72-.89-3.23,1.69-1.52,2.58Z" transform="translate(-215.81 -101.91)"/><path class="cls-7" d="M641.5,296.67a3.17,3.17,0,1,1-3.17-3.17A3.16,3.16,0,0,1,641.5,296.67Z" transform="translate(-215.81 -101.91)"/><rect class="cls-3" x="390" y="308" width="5" height="3" transform="translate(-242.35 -64.9) rotate(-5.22)"/><path class="cls-3" d="M364.58,305.59c-1.33.52-2,0-3.41.33-.44.11-3.59.13-3.34.66.18.36,2.25.75,2.84,3.59.33,1.61-.68,3.31-1.66,4.56a11.92,11.92,0,0,0,3.91-.06,23.14,23.14,0,0,1,3.33-.75C363.38,312.59,362.55,307.89,364.58,305.59Z" transform="translate(-215.81 -101.91)"/><path class="cls-3" d="M394.92,300.83a5.59,5.59,0,0,0-3,.05,28.19,28.19,0,0,0-3.63.87c-.4.14-1.35,1-1,1,.75.44,2.52,1,3.16,1.68a9,9,0,0,1,1.26,2.13c.15.27.64-.07.67-.35a3.83,3.83,0,0,1,.79-2.46c.43-.47,2.19-1.74,2.58-2.25C395.93,301.32,395.09,300.9,394.92,300.83Z" transform="translate(-215.81 -101.91)"/><path class="cls-4" d="M408.06,290.06c-1.74.34-1.77-.4-3.55-.24-.57.06-3.78.49-3.51,1.06.18.38,2,.63,2.13,3.56.07,1.89-.92,2.74-2.3,3.86a19.67,19.67,0,0,0,5,.46c1.3-.1,1.57-1.14,2.87-1.07C406.63,296.44,405.38,291.94,408.06,290.06Z" transform="translate(-215.81 -101.91)"/><path class="cls-5" d="M409.27,289.39c.22,1.75-1.79,3.44-4.5,3.77s-5.08-.8-5.29-2.55,1.79-3.44,4.5-3.77S409.06,287.64,409.27,289.39Z" transform="translate(-215.81 -101.91)"/><rect class="cls-2" x="354.02" y="300.24" width="56.68" height="4" transform="translate(-255.44 -43.55) rotate(-8.3)"/><path class="cls-6" d="M373,300.42c-2.17.66-2.46,3.08-2.46,5.16,0,2.52,0,5.92.63,8.25.5,2,2.58,1.34,4.33,1,1.33-.25,3-.75,2.92-2.41-.09-1.34-.13-2.55-.29-3.88s-.25-2.54-.42-3.79-.5-3.21-1.5-4.12S373,300.42,373,300.42Z" transform="translate(-215.81 -101.91)"/><path class="cls-3" d="M370.42,314.61c-.07-1.5-.18-2.9-.27-4.19-.46-6.29-.77-10.44,4.05-10.92a3.23,3.23,0,0,1,2.53.71c1.79,1.57,1.94,5.36,2.14,10.6,0,1,.07,2.07.13,3.16l-1,.06c-.05-1.11-.1-2.17-.13-3.18-.19-4.81-.33-8.6-1.8-9.88a2.21,2.21,0,0,0-1.77-.47c-3.7.36-3.64,3.28-3.15,9.85.09,1.29.19,2.7.27,4.21Z" transform="translate(-215.81 -101.91)"/><polygon class="cls-5" points="183.44 222.34 140.94 226.59 139.56 212.04 182.19 207.59 183.44 222.34"/><circle class="cls-3" cx="158.44" cy="201.26" r="1.5"/><path class="cls-3" d="M394,335.47a1.67,1.67,0,0,1-1.36,1.91l-12.86,1.38a1.66,1.66,0,0,1-1.73-1.57l-.06-.5a1.68,1.68,0,0,1,1.37-1.91l12.85-1.38A1.67,1.67,0,0,1,394,335Z" transform="translate(-215.81 -101.91)"/><path class="cls-3" d="M387,349.47a1.67,1.67,0,0,1-1.36,1.91l-12.86,1.38a1.66,1.66,0,0,1-1.73-1.57l-.06-.5a1.68,1.68,0,0,1,1.37-1.91l12.85-1.38A1.67,1.67,0,0,1,387,349Z" transform="translate(-215.81 -101.91)"/><path class="cls-3" d="M388,363.47a1.67,1.67,0,0,1-1.36,1.91l-12.86,1.38a1.66,1.66,0,0,1-1.73-1.57l-.06-.5a1.68,1.68,0,0,1,1.37-1.91l12.85-1.38A1.67,1.67,0,0,1,388,363Z" transform="translate(-215.81 -101.91)"/><path class="cls-3" d="M413,360.47a1.67,1.67,0,0,1-1.36,1.91l-12.86,1.38a1.66,1.66,0,0,1-1.73-1.57l-.06-.5a1.68,1.68,0,0,1,1.37-1.91l12.85-1.38A1.67,1.67,0,0,1,413,360Z" transform="translate(-215.81 -101.91)"/><circle class="cls-3" cx="157.44" cy="235.17" r="2.25"/><circle class="cls-3" cx="201.44" cy="257.17" r="2.25"/><circle class="cls-3" cx="176.44" cy="260.17" r="2.25"/><circle class="cls-3" cx="176.44" cy="247.17" r="2.25"/><circle class="cls-3" cx="183.44" cy="246.17" r="2.25"/><circle class="cls-3" cx="190.44" cy="245.17" r="2.25"/><path class="cls-3" d="M358.37,342.65l-1-.18c.13-.68.4-1.79.6-2.59l.16-.67c0-.06,1.85-6.87,3.44-7,.95-.07,3.88,4.16,4,4.34a22.78,22.78,0,0,1,2.06,3.83c.12.28.21.49.29.63l-.88.48c-.08-.16-.19-.4-.33-.71a20.06,20.06,0,0,0-2-3.66,30.06,30.06,0,0,0-3.15-3.87c-.65.53-2.13,4.67-2.49,6.19l-.17.68C358.76,340.91,358.49,342,358.37,342.65Z" transform="translate(-215.81 -101.91)"/><path class="cls-3" d="M358.74,339l-.15-1,7-1,.13,1Z" transform="translate(-215.81 -101.91)"/><path class="cls-3" d="M360.05,357.36c-.11-.5-.3-1.41-.34-1.8-.07-.55-.15-1.09-.24-1.63-.05-.3-.09-.59-.14-.89-.07-.47-.15-1-.23-1.43a21.84,21.84,0,0,1-.43-3.6l1,0a21.49,21.49,0,0,0,.41,3.45c.09.49.17,1,.24,1.46.05.29.09.58.14.87.09.56.18,1.11.24,1.67,0,.31.2,1.15.33,1.7Z" transform="translate(-215.81 -101.91)"/><path class="cls-3" d="M359.89,352.51l-.59,0-.08-.49,0-.5h.5l.26-.1a23.52,23.52,0,0,0,2.61-1.06c.61-.3,2-1,1.9-1.63a1.06,1.06,0,0,0-.37-.75,2.57,2.57,0,0,0-1.89-.22,18.12,18.12,0,0,0-2.38.71l-1,.32-.28-1c.25-.07.58-.19.94-.31a18.26,18.26,0,0,1,2.53-.74,3.44,3.44,0,0,1,2.67.41,2,2,0,0,1,.75,1.45c.13,1.33-1.52,2.16-2.41,2.6a24.81,24.81,0,0,1-2.74,1.12Z" transform="translate(-215.81 -101.91)"/><path class="cls-3" d="M360.41,357.33l-.15-1c1.12-.17,5.19-1.17,5.9-1.44.54-.2,1.79-.79,1.68-1.93a1.85,1.85,0,0,0-.74-1.38c-1.05-.78-3-.64-4-.43l-.2-1c.31-.07,3.11-.6,4.75.6a2.83,2.83,0,0,1,1.14,2.09c.13,1.27-.74,2.38-2.32,3C365.67,356.15,361.51,357.17,360.41,357.33Z" transform="translate(-215.81 -101.91)"/><path class="cls-3" d="M365.3,371.58a6.86,6.86,0,0,1-2.69-.52,4.11,4.11,0,0,1-2.51-2.95,5.07,5.07,0,0,1,1.11-4.84,7.16,7.16,0,0,1,6.28-1.76l-.15,1a6.18,6.18,0,0,0-5.4,1.46,4.19,4.19,0,0,0-.87,3.94,3.19,3.19,0,0,0,1.94,2.25,6.06,6.06,0,0,0,5.07-.24l.51.86A6.58,6.58,0,0,1,365.3,371.58Z" transform="translate(-215.81 -101.91)"/><path class="cls-7" d="M252.89,444.11a12.2,12.2,0,0,1-6.39.77,3.48,3.48,0,0,0-2.41.54,2.47,2.47,0,0,0-1.21.71c-.82,5.81-6.78,3.62-8.88,8.06-1.13,2.37,1.56,4.21,3.46,3.86,4-.74,7.74-2.66,11.34-4.41,1.52-.75,2.89-1.18,3.69-2.74.91-1.79.66-4.46.91-6.4A.41.41,0,0,0,252.89,444.11Z" transform="translate(-215.81 -101.91)"/><path class="cls-7" d="M289.17,450.92a34.76,34.76,0,0,1-4.91-1.6c-2.35-1.11-1.67-3-1.95-5.07.41-.43-.72-.29-.75-.3l-.06-.07-3.22-.46a7.1,7.1,0,0,0-3.2.34c-1.86.81-2.11,2.21-2.34,4.1s-.62,2.74,1,3.89c1.89,1.34,5.46,2.44,7.6,3.29,2.8,1.1,10,2,10.36-1.37C291.87,452.1,290.41,451.29,289.17,450.92Z" transform="translate(-215.81 -101.91)"/><path class="cls-2" d="M281.27,410.43c-.14-5.82,0-11.65-.19-17.47-.14-5-.71-10-.65-15,0-2.09,0-5.61-2.51-6.37A96.76,96.76,0,0,0,264.06,369c-5.26-.75-12.67-1.18-14.76,5a.5.5,0,0,0,.21.61c-2.17,11.48-3,23.21-3.92,34.85-1,12.44-1.89,24.89-3,37.32a.66.66,0,0,0,.82.63c2.66-.91,5.18.47,7.83.69a10,10,0,0,0,3.77-.45c1.9-.66,2.08-3,2.29-4.73.69-5.55,1.56-11.06,2-16.65a188.25,188.25,0,0,1,2.2-20.65,76.38,76.38,0,0,1,2.29-8.77c.36-1.19,2.06-6.79,3.45-3.32A16.67,16.67,0,0,1,268,399c.08,2.34.27,4.67.38,7,.67,13.42,1.35,27.16,4.05,40.36a.6.6,0,0,0,.59.45,82.45,82.45,0,0,0,9.13-1.12.53.53,0,0,0,.38-.49C283.85,433.62,281.54,422.05,281.27,410.43Z" transform="translate(-215.81 -101.91)"/><path class="cls-3" d="M290.7,313.54,247.47,282c.58-.65-.41-1.87-1.17-1.29-5.8,4.47-7.67,12.8-7.18,19.85.56,8.24,7.53,14.3,11.62,20.88,4.68,7.52,3.91,18.05,2.26,26.33-1.8,9.08-4.35,18-4.85,27.34a1,1,0,0,0,1.23.93,56.62,56.62,0,0,1,12.06-.48c6.26.52,12.42,2.55,18.69,3.07a.9.9,0,0,0,.89-.9c.23-4.35,0-8.12-.13-12.95-.13-6.1,1.59-12,2.68-18,1.86-10.32,2.85-23.29,8.46-32.38C292.58,313.52,291.33,312.84,290.7,313.54Z" transform="translate(-215.81 -101.91)"/><path class="cls-1" d="M297.75,282.5C281,276.25,257,263.75,257,263.75l-17.15,50.86a4.09,4.09,0,0,1,2.78,2.7c.37,1,.92.15,1.68.63,1.5.94-.25,3.08.94,3.44a8.17,8.17,0,0,1,3.56,2.68c.44-3,1.44-5.68,4.19-4.93,1.13.37.69.62,1.31-.63s3.25-1.37,4.38-.25c1,.88,1.43,2.85,1.56,2.63s1-1.38,2,.43c.32.6,1.31,2.57,1.69,3.07a4.89,4.89,0,0,1,.77,1.85,118,118,0,0,1,19.11,2.92c4.71,1.12,9.34,2.63,13.93,4.18a51.67,51.67,0,0,1,11.12,4.86A60.79,60.79,0,0,1,320.76,348c1-2.78,2.06-6.09,3.24-10,4.5-15,11.75-43.25,11.75-43.25S305,285.2,297.75,282.5Z" transform="translate(-215.81 -101.91)"/><path class="cls-4" d="M255.66,276.31c-1.67-.68-3.71.3-5.11,1.2a22.09,22.09,0,0,0-4.93,3.83.41.41,0,0,0-.19.09c-1.5,1.18-1.52,3.59-.78,5.22,1.07,2.31,3.49,1.92,6.29,1.41,1.9-.34,3.84-.5,4.9-2,.84-1.17-.31-1.67-1.25-2,1.11-.59,2.69-1.53,2.5-2.65-.12-.73-1.28-1.3-1.81-1.5a3.09,3.09,0,0,0,1.35-1.25A1.57,1.57,0,0,0,255.66,276.31Z" transform="translate(-215.81 -101.91)"/><path class="cls-3" d="M257.38,281.63a1.86,1.86,0,0,0-1.75-1.79,4.09,4.09,0,0,0,1.28-1c.84-1.05-.18-2-1-2.39a.12.12,0,0,0-.13.19c2.26,2-.43,2.94-2.74,3.4l-1,.19-1.13.19h-.16v0c-.51.1-.38.88.12.89a12.82,12.82,0,0,0,3.16-.62c2.51-.58,3.62,1.18,1.56,2.51-1.13.73-2.74.69-4,.84H251v.63l.41,0a14.71,14.71,0,0,0,1.6-.05c.35,0,4.29-.3,2.52,1.67-1,1.06-5.18,2-7.09,2.21-.91.09-.55.79-.25.75,3.94-.56,8.11-1.73,8.11-3.67A1.44,1.44,0,0,0,255,284C256.25,283.53,257.38,283,257.38,281.63Z" transform="translate(-215.81 -101.91)"/><rect class="cls-2" x="285" y="296" width="17" height="2" transform="translate(-261.17 -48.89) rotate(-9.59)"/><rect class="cls-3" x="284.27" y="291.04" width="2" height="10.93" transform="translate(-282.7 -18.19) rotate(-14.97)"/><rect class="cls-3" x="297.8" y="293.5" width="10.93" height="2" transform="translate(-335.26 195.65) rotate(-44.57)"/><path class="cls-2" d="M295.52,296.87c-.47,1.14-.91,2.29-1.35,3.44-.23,0-1.06-.15-1.33-.17.48-1,1-2.09,1.43-3.14.26-.58-.6-1.09-.87-.5-1.87,4.16-3.8,8.3-5.58,12.5-.25.58.61,1.09.86.5.69-1.61,1.41-3.21,2.12-4.81.27,0,1.14.1,1.27.1l.39,0c-.55,1.44-1.1,2.87-1.69,4.3-.25.59.72.85,1,.26.69-1.67,4.24-11,4.75-12.25C296.73,296.54,295.76,296.28,295.52,296.87Zm-3.4,6.92-.33,0-.56,0c.4-.89.8-1.79,1.21-2.68a3.74,3.74,0,0,1,.82,0,3.33,3.33,0,0,0,.63,0c-.36.94-.72,1.88-1.07,2.83A4.48,4.48,0,0,0,292.12,303.79Z" transform="translate(-215.81 -101.91)"/><path class="cls-4" d="M271.75,331.25l10-24.25s2.5-3,10-1a11.26,11.26,0,0,1,6.75,4.5l-7,25.75Z" transform="translate(-215.81 -101.91)"/><polygon class="cls-4" points="89.44 222.67 83.52 227.67 82.02 234.09 89.61 238.01 92.02 230.25 89.44 222.67"/><polygon class="cls-6" points="91.27 229.67 87.94 236.67 95.94 241.17 99.11 234.01 91.27 229.67"/><path class="cls-5" d="M305.17,325.25l1.33,7.58,9,3.84-.33-8.5-9.75-4.42s-7.3,5.18-7,5.58a4.57,4.57,0,0,0,.83.75Z" transform="translate(-215.81 -101.91)"/><polygon class="cls-2" points="68.19 210.09 65.69 215.5 68.69 215.84 70.69 210.09 68.19 210.09"/><polygon class="cls-2" points="64.44 218.21 60.56 226.96 64.81 227.84 67.81 218.59 64.44 218.21"/><path class="cls-6" d="M262.25,321.31c-1-1.81-1.81-.75-2-.43s-.56-1.75-1.56-2.63c-1.13-1.12-3.63-.87-4.38.25s-.18,1-1.31.63c-2.75-.75-3.75,1.93-4.19,4.93a8.17,8.17,0,0,0-3.56-2.68c-1.19-.36.56-2.5-.94-3.44-.76-.48-1.31.37-1.68-.63a4.09,4.09,0,0,0-2.78-2.7l-4.22,12.53a65.94,65.94,0,0,1,7.59-.85c4.58-.33,9.12-.28,13.7-.32,2.58,0,5.18.08,7.79.26a4.89,4.89,0,0,0-.77-1.85C263.56,323.88,262.57,321.91,262.25,321.31Z" transform="translate(-215.81 -101.91)"/><path class="cls-2" d="M256,323c.17-.86.88-1.47,1.21-2.25.09-.22-.24-.39-.38-.23a7.6,7.6,0,0,0-1.29,2,5.89,5.89,0,0,0-.33,1.41,3.3,3.3,0,0,0-2.55-2c-.25,0-.32.34-.13.46,4.15,2.46,2,7.21,3.14,10.92.16.52,1.05.45,1-.13-.17-1.74-.08-5.67-1.07-8.39A11.94,11.94,0,0,0,256,323Z" transform="translate(-215.81 -101.91)"/><path class="cls-2" d="M258.07,322a7.24,7.24,0,0,0-.56,2.73,7.94,7.94,0,0,0-.36,2.81c0,.2.32.18.37,0,.52-1.74.71-3.54,1.11-5.3A.31.31,0,0,0,258.07,322Z" transform="translate(-215.81 -101.91)"/><path class="cls-2" d="M260.09,323.76c-.91.79-1.17,2.11-2,2.94a.18.18,0,0,0,.22.29c1.08-.57,1.59-1.82,2.31-2.75A.34.34,0,0,0,260.09,323.76Z" transform="translate(-215.81 -101.91)"/><path class="cls-2" d="M241.87,321.12a2.86,2.86,0,0,0-1,1.9,3.31,3.31,0,0,0-.84-1.23.3.3,0,0,0-.49.29c.18,1.06.84,2.07,1.12,3.13a9.82,9.82,0,0,1,.25,3.62.25.25,0,0,0,.46.13,5.62,5.62,0,0,0,.19-3.58c0-.23-.09-.49-.16-.77a8.7,8.7,0,0,0,.14-1.35,4.47,4.47,0,0,1,.67-1.8C242.34,321.25,242.09,321,241.87,321.12Z" transform="translate(-215.81 -101.91)"/><path class="cls-2" d="M264.29,324.31a10.48,10.48,0,0,1-1.47-3.09c-.43-1.07-1.62-1.93-2.53-1.52-.55-1-1-2.66-2.6-2.75-1-.06-3.05-.06-3.66,1-.48.86-.87.65-1.8.46a2.63,2.63,0,0,0-2,.64c-1.42.94-1.37,2.62-1.49,4.14-1.27-1.28-1.62-2.15-3.49-2.3a2.77,2.77,0,0,0-.92-3.79,2.14,2.14,0,0,0-1.64-.35c-.61-1.12-1.25-2.23-2.62-2.46a2.36,2.36,0,0,1-.33.45c1.26.25,2.5,1,2.5,2.27a1.38,1.38,0,0,0-.41.95.69.69,0,0,0,1,.59l.12-.07a.59.59,0,0,0,.24-.3l.34.21c.95.41,1.15,1.31.59,2.69-.15.25,0,.67.36.63,2.07-.23,2.9,1.33,4.25,2.5a.36.36,0,0,0,.61-.25,15,15,0,0,0,.1-1.9c0-2.43,2.46-3.14,4.46-2.65a.3.3,0,0,0,.37-.2c.26-1.43,1.73-1.39,2.71-1.41,2.1,0,2.24,1.79,2.87,3a.35.35,0,0,0,.59,0c1.3-1.87,2.51,3.21,2.28,2.81.31.54,1,.85,1.35,1.43,2.26,3.64-3.74,3.65-5.77,3.72-2.32.08-4.6.45-6.93.48s-4.85-.18-7.27-.2-5,0-7.45-.11c-.48,0-1,0-1.49,0a1.52,1.52,0,0,1-.37.67,13,13,0,0,0,1.86,0c4.59-.15,9.23.13,13.83.23a80.38,80.38,0,0,0,12-.8,2.73,2.73,0,0,0,2.53-2.87A3.47,3.47,0,0,0,264.29,324.31Z" transform="translate(-215.81 -101.91)"/><path class="cls-7" d="M308.87,338.19a51.67,51.67,0,0,0-11.12-4.86c-4.59-1.55-9.22-3.06-13.93-4.18a114.51,114.51,0,0,0-26.9-3.18c-4.58,0-9.12,0-13.7.32a65.94,65.94,0,0,0-7.59.85l-.88,2.61a256.23,256.23,0,0,0,32,13.75c3,1.06,11,3.65,19.74,6.42l10.78,3.4c-.26-.69-.65-1.37-.91-2A14.1,14.1,0,0,1,295,348a.5.5,0,0,1,.91-.38,13.05,13.05,0,0,1,1.78,3.86,9.93,9.93,0,0,1,.46-1,4.06,4.06,0,0,1,1.45-1.86c.22-.13.52.13.36.36a16,16,0,0,0-2,3.4,5,5,0,0,1,.19,1.2l4.59,1.43a8.37,8.37,0,0,0-.34-3.07,15.91,15.91,0,0,1-1.33-4.09c0-.29.36-.34.49-.14.42.61.9,1.26,1.34,1.94a1.83,1.83,0,0,1,.24-.54,9.67,9.67,0,0,1,2.1-2.23.13.13,0,0,1,.21.16c-.38.85-1.27,1.27-1.76,2a3,3,0,0,0-.44,1.16,6.64,6.64,0,0,1,.82,2.09c.24-.54.51-1.06.76-1.5a9.22,9.22,0,0,1,2.61-3c.27-.2.59.23.35.45a14.28,14.28,0,0,0-3.62,5.47,16.07,16.07,0,0,1-.08,1.67l4.21,1.31c.08-.87,0-1.8.12-2.56a7.34,7.34,0,0,1,.79-3c.14-.23.57-.15.54.15-.1,1-.27,1.91-.43,2.87a12.46,12.46,0,0,1,1.29-1.1,11,11,0,0,1,1.73-1.25c.21-.09.39.24.22.39a23.37,23.37,0,0,1-3.34,2.6c-.05.36-.1.72-.14,1.08s-.08.69-.14,1l1.76.54a7.71,7.71,0,0,1,3.12-3.52.28.28,0,0,1,.38.38,20.64,20.64,0,0,1-2.05,2.14,11.16,11.16,0,0,0-.85,1.19l4.91,1.53s.85-1.64,2.28-5.24c.64-1.6,1.39-3.59,2.23-6A60.79,60.79,0,0,0,308.87,338.19Z" transform="translate(-215.81 -101.91)"/><path class="cls-6" d="M307.83,348.33c.24-.22-.08-.65-.35-.45a9.22,9.22,0,0,0-2.61,3c-.25.44-.52,1-.76,1.5a6.64,6.64,0,0,0-.82-2.09,3,3,0,0,1,.44-1.16c.49-.77,1.38-1.19,1.76-2a.13.13,0,0,0-.21-.16,9.67,9.67,0,0,0-2.1,2.23,1.83,1.83,0,0,0-.24.54c-.44-.68-.92-1.33-1.34-1.94-.13-.2-.52-.15-.49.14a15.91,15.91,0,0,0,1.33,4.09,8.37,8.37,0,0,1,.34,3.07l1.35.43a16.07,16.07,0,0,0,.08-1.67A14.28,14.28,0,0,1,307.83,348.33Z" transform="translate(-215.81 -101.91)"/><path class="cls-6" d="M314.24,354.39a.28.28,0,0,0-.38-.38,7.71,7.71,0,0,0-3.12,3.52l.6.19a11.16,11.16,0,0,1,.85-1.19A20.64,20.64,0,0,0,314.24,354.39Z" transform="translate(-215.81 -101.91)"/><path class="cls-6" d="M300,349c.16-.23-.14-.49-.36-.36a4.06,4.06,0,0,0-1.45,1.86,9.93,9.93,0,0,0-.46,1,13.05,13.05,0,0,0-1.78-3.86.5.5,0,0,0-.91.38,14.1,14.1,0,0,0,1.34,3.31c.26.63.65,1.31.91,2l.92.29a5,5,0,0,0-.19-1.2A16,16,0,0,1,300,349Z" transform="translate(-215.81 -101.91)"/><path class="cls-6" d="M309.26,354.89a23.37,23.37,0,0,0,3.34-2.6c.17-.15,0-.48-.22-.39a11,11,0,0,0-1.73,1.25,12.46,12.46,0,0,0-1.29,1.1c.16-1,.33-1.91.43-2.87,0-.3-.4-.38-.54-.15a7.34,7.34,0,0,0-.79,3c-.09.76,0,1.69-.12,2.56l.64.21c.06-.33.11-.67.14-1S309.21,355.25,309.26,354.89Z" transform="translate(-215.81 -101.91)"/><path class="cls-6" d="M319.26,352.1c-.33-.26-.69-.51-1.09-.78-.64-.43-1.89-1-2.67-.66s-.2.27-.17-.54a7.39,7.39,0,0,0-.31-2.69c-.29-.91-1.43-1.39-2.24-1.64a2.2,2.2,0,0,0-1.14,0c-.76.21-.33.51-.44-.4a1.49,1.49,0,0,0-2.49-.8c-.42-1-.93-2.55-2.65-2.68a3.14,3.14,0,0,0-3.41,1.64c-1.6-1.94-4.59-1.47-6.43.08a3.65,3.65,0,0,0-1,1.73c-.12.35-1,.15-1.48.28a2.62,2.62,0,0,0-2.2,2.3,2.94,2.94,0,0,0-3.38,2.53l.79.25c.2-1.44,1-3.18,2.63-1.89a.46.46,0,0,0,.78-.32c.13-1.79,1.59-2.21,2.93-2.3a.23.23,0,0,0,.34-.2,3.94,3.94,0,0,1,3.65-3.24c1-.1,3,.51,3.07,1.74a.43.43,0,0,0,.8.22c1.57-2.39,4.21-2.29,5.24.73.09.25.47-.07.89-.28a1.19,1.19,0,0,1,1.47,1.46.28.28,0,0,0,.48.19c1.16-1.39,3.07.09,3.47,1.35a10.46,10.46,0,0,1,0,3.21.29.29,0,0,0,.5.2c1.05-1.08,3.57,1,3.67,1.45C319.06,352.66,319.16,352.28,319.26,352.1Z" transform="translate(-215.81 -101.91)"/><path class="cls-7" d="M564.29,218.54c-1.59.36-2.48,3.27-3.41,4.38a18.55,18.55,0,0,0-2.89,4.25c-.32.72-.65,2,0,2.62a1.92,1.92,0,0,0,1.26.67,28.87,28.87,0,0,1,4.64.7c1.4.23,2-1.07,2.4-2.17,1-2.69,2.35-5.18,3.19-7.92a.41.41,0,0,0,.7-.2C570.68,218.23,565.9,218.18,564.29,218.54Z" transform="translate(-215.81 -101.91)"/><polygon class="cls-3" points="336.19 141.92 324.36 141.59 324.19 146.09 336.19 146.09 336.19 141.92"/><path class="cls-2" d="M569,230.75c-2-.57-4,.1-6-.59-1.56-.53-2.88-1.3-4.56-1-.43.07-.27.65,0,.72,0,1.88.35,4.54,2.12,5.45,1.38.72,3,.46,4.49.47a9.51,9.51,0,0,0,4.53-.9C571.71,233.82,571.12,231.36,569,230.75Z" transform="translate(-215.81 -101.91)"/><path class="cls-3" d="M560.75,235l-1.42.33s.67,3.84,1.17,3.84,10-1,10-1l.83-4.17Z" transform="translate(-215.81 -101.91)"/><path class="cls-3" d="M587,232c-2.25-11.25-13.75-22.5-26-22.25-.75,0-1.75.25-2.75.25a.87.87,0,0,1-.25.5c-6-.75-10.87-.5-16.75,2.25-6.69,3.13-11.62,8.38-15.37,14.63-3.5,6-3.38,14.87-1.13,21.62a27.23,27.23,0,0,0,10,14.25c10,7.25,24.75,8.5,35.75,3C582.5,260.25,589.75,245,587,232Zm-23.75,26.25c-8.75,3.75-19.38.91-26-6-5.62-5.87-6.25-17.5.5-24.75,4-4,11.5-9.25,17.5-7.5l2-.12c9,.25,18.08,6,19.5,15.25C578.5,246.5,572,254.75,563.25,258.25Z" transform="translate(-215.81 -101.91)"/><rect class="cls-6" x="552" y="202" width="5" height="33" transform="translate(-229.08 -64.66) rotate(-3.8)"/><path class="cls-3" d="M550.26,202c-.41,5.52.9,11.09,1.24,16.58s.41,11.11,1,16.67a.3.3,0,0,0,.6,0,51,51,0,0,0-.51-8.36c-.26-2.76-.15-5.54-.28-8.31-.26-5.51-1-11.08-1.52-16.58a.24.24,0,0,0-.48,0Z" transform="translate(-215.81 -101.91)"/><polygon class="cls-1" points="333.02 139.25 347.69 132.75 349.86 135.09 336.19 141.92 333.02 139.25"/><path class="cls-2" d="M559,239a1.09,1.09,0,1,1-1.08-1A1,1,0,0,1,559,239Z" transform="translate(-215.81 -101.91)"/><path class="cls-2" d="M553.93,242.6c-.56-.3-1.12-.57-1.66-.9-1.43-.85-1.09-2.56-1-3.81.23-2.27-3-4.32-4.22-2.18-.15-.09-.3-.18-.44-.28a.17.17,0,0,0-.33.07c-.12,1.71-2.32,2.44-2.59,4.18-.15,1,2.9,3,3.49,3.44a41.15,41.15,0,0,0,5.09,3.37c.87.51,2.42.88,3.15-.07a2.27,2.27,0,0,0-.07-2.7A3.36,3.36,0,0,0,553.93,242.6Z" transform="translate(-215.81 -101.91)"/><path class="cls-3" d="M546.92,196c-3,.17-9.43-1.41-11.71,1.25-2,2.33.94,7.67,3.27,8,2.67.33,17.84.83,20.51,0,2.5-1,1.92-4.25-.58-6.75-2-2-8.41-3.33-11.41-2.5h0v.17Z" transform="translate(-215.81 -101.91)"/><path class="cls-3" d="M547,195.77c-4.25.07-14.58-2.19-12.35,5.5,1.63,5.63,7.71,4.68,12.36,4.81,3.2.08,6.4.14,9.6-.06,2-.13,3.89-.39,4.4-2.64.65-2.79-2.23-5.44-4.47-6.43-2.41-1.07-6.86-2.37-9.46-1.28a.36.36,0,0,0-.25.42l0,.16.44-.34-.21-.11a.23.23,0,0,0-.31.31,2.12,2.12,0,0,1,.11.21.3.3,0,0,0,.54-.07,13.33,13.33,0,0,1,2.78-.14,17.41,17.41,0,0,1,4.35.76,8.7,8.7,0,0,1,3.68,1.87c1.4,1.28,3.44,5.32.43,6.14-3.57,1-8,.42-11.68.36q-3.06-.06-6.12-.16c-2.24-.09-3.64-.4-5-2.46a5.22,5.22,0,0,1-.69-4.84c.72-1.59,3.22-1.73,4.67-1.79,2.37-.1,4.73.33,7.11.24A.23.23,0,0,0,547,195.77Z" transform="translate(-215.81 -101.91)"/><path class="cls-7" d="M565.88,179.66a29,29,0,0,1-8.42-.34c-2.51-.59-4.92-1.54-7.42-2.17a21.41,21.41,0,0,0-6.48-.57,12.51,12.51,0,0,0-2.34.43c-1,.24-2,1.12-2.9,1.32l-.2-.29c-.29-.43-1-.08-.77.35-2,4.32-4.8,9.8-2.5,14.6,2.53,5.28,8.82,7.91,13.81,10.37,3.06,1.51,6.18,3.56,7.26,7,1,3.13-.57,6.65-2.07,9.33s-2.85,5.43-4.22,8.2a94,94,0,0,0-4.17,8.49.57.57,0,0,0,.25.64c3.39,2.36,6.44,4.69,9.42.58,3.87-5.38,7.56-11,11.11-16.56a13.68,13.68,0,0,0,2.34-5c.42-1.83-.29-3.41-.58-5a33.73,33.73,0,0,1,5.42,2.33c.43-.77.71-1.7,1.21-2.89,3.19-7.59,7.69-14.89,8.39-23.23C583.77,178.4,571.58,179.33,565.88,179.66Zm.21,21a25.58,25.58,0,0,0-5.67-7.36,9.78,9.78,0,0,0,1.71.55,24.19,24.19,0,0,0,4.48.64,15,15,0,0,0,4.21-.31C569.38,196.42,567.67,198.5,566.09,200.67Z" transform="translate(-215.81 -101.91)"/><path class="cls-5" d="M604.46,152.94c.18-2.58-2.89-2.63-4.76-2.32s-3.7,1.56-5.62,2.07c-1,.26-2.23.39-2.89,1.28-1.64,2.19-.66,4.55,1.54,5.82a.51.51,0,0,0,.64-.08c1.8.72,4,.21,5.87,0,1.56-.15,3.39-.31,3.45-1.5,0-.31-.37-.71-.59-.87a4.79,4.79,0,0,0-1.26-.67C602.59,155.88,604.35,154.66,604.46,152.94Z" transform="translate(-215.81 -101.91)"/><path class="cls-3" d="M593,153.25a.52.52,0,0,0-.66-.5,55.32,55.32,0,0,1-6.39,1.07c-2.08.16-6,1-7.72-.49-.93-.82-1.18-2.92-1.36-4.1-.21-1.39-.61-2.76-.95-4.12a10.17,10.17,0,0,0-3.89-5.92,14.63,14.63,0,0,0-4.74-2.4,13.86,13.86,0,0,0-3.37-.49c-1.33-2-3.68-1.49-5.81-.94s-4.63.66-6.83,1.39a4.4,4.4,0,0,0-1.45.23.35.35,0,0,0-.27-.06c-7.67,1.14-12.77,6.11-17.42,11.86a43.31,43.31,0,0,0-6.06,9.84,15.83,15.83,0,0,0-1.72,6.63c0,2.53,2,4.4,3.89,5.55a18.69,18.69,0,0,0,7.65,2.29c0,2.61,0,6.54,3.18,7.46a32.56,32.56,0,0,0,6.29,1c2.88.27,5.57,1.17,8.41,1.63,4.2.68,8.14-.92,11.69-3a.45.45,0,0,0,.23-.41,52.42,52.42,0,0,1,2.08-14.18c.54-2,.83-4.11,1.19-6.19a13.77,13.77,0,0,1,.36-1.44c.91,2.72,2.55,5.39,5.4,5.7a27.9,27.9,0,0,0,8.46-.08c3.47-.7,6.61-2.53,10.16-3.13a.42.42,0,0,0,.31-.31C594,157.75,592.9,155.61,593,153.25Z" transform="translate(-215.81 -101.91)"/><path class="cls-7" d="M549.82,146.74c-2.85,2.58-5.4,5.21-8.5,7.53-2.4,1.79-5.25,3.84-6.17,6.83-.71,2.3,1.48,3.91,3.35,4.61,3.89,1.44,8.45.68,12.5.41a.29.29,0,0,0,0-.57c-3.39-.17-6.89.75-10.25.16-1.58-.28-4-1.38-4.53-3s1.4-3.38,2.48-4.38c4-3.67,8.74-6.48,11.34-11.4a.14.14,0,0,0-.22-.16Z" transform="translate(-215.81 -101.91)"/><path class="cls-5" d="M577.17,119.79a4.06,4.06,0,0,0-1.92-.9c-2.62-.84-3.25-3.7-4.06-6-1.48-4.21-6.86-6-10.85-6.2a14.59,14.59,0,0,0-7.12,1.79c-2.8,1.32-4.89,2.61-6.16,5.52a.34.34,0,0,0,.08.39c-3.21,3.68-3.45,7.49-3,12.3a11.53,11.53,0,0,0,2.45,6.48c1.65,2,3.91,3.19,6.1,4.55.68.43.22,2.08.6,2.76a2.61,2.61,0,0,0,1.64,1.33c2,.67,4.94,1.23,6.85,0,1.16-.76,1.37-2.43,1.75-3.64s2.08-1.64,3-2.16a22.85,22.85,0,0,0,3.31-2.19,9.09,9.09,0,0,0,3.21-6c.43-2.48,3.13-2.29,4.2-4.16A3.44,3.44,0,0,0,577.17,119.79Z" transform="translate(-215.81 -101.91)"/><path class="cls-5" d="M556.24,164.9a10.35,10.35,0,0,0-3,.15c-1,.12-1.81.17-2.91.33a1.81,1.81,0,0,0-.9.46c-.29.3-1.18,1.08-1.4,1.4a3.71,3.71,0,0,0-.93,2.86,2,2,0,0,0,1.76,1.46,24.52,24.52,0,0,0,5.87-.06c1.92-.28,6.42-1.7,5-4.6C559.06,165.45,557.71,165.16,556.24,164.9Z" transform="translate(-215.81 -101.91)"/><ellipse class="cls-3" cx="351.07" cy="15.4" rx="1.25" ry="1.31"/><path class="cls-3" d="M574.25,106.67c-3.92-3.52-9.39-4.85-14.67-4.75a23,23,0,0,0-11.07,2.69c-7.36,3.82-10.6,13.33-9.48,21.24,0,.12.14.21.25.25a42.68,42.68,0,0,0,4.85,1.4c.25,0,.45,0,.46-.22a18.64,18.64,0,0,1,12.58-16.42,17.32,17.32,0,0,1,8.62-.4,26.72,26.72,0,0,1,3.38,1c1.21.37,1.44,0,1.79-.46,1.12-1.42,1.62-2,2.91-3.5C574.05,107.29,574.47,106.86,574.25,106.67Z" transform="translate(-215.81 -101.91)"/><rect class="cls-2" x="265.19" y="160.09" width="5" height="19"/><rect class="cls-2" x="362.19" y="162.09" width="5" height="19"/><rect class="cls-2" x="425.19" y="156.09" width="5" height="19"/><rect class="cls-2" x="676" y="262" width="19" height="5" transform="translate(92.3 793.02) rotate(-80.19)"/><rect class="cls-2" x="710" y="256" width="5" height="19" transform="translate(-247.12 5.84) rotate(-8.46)"/><rect class="cls-2" x="732" y="261" width="19" height="5" transform="translate(194.05 875.22) rotate(-84.64)"/><rect class="cls-2" x="375" y="265" width="5" height="19" transform="translate(-254.73 -38.25) rotate(-9.17)"/><rect class="cls-2" x="328" y="261" width="5" height="19" transform="translate(-254.69 -45.79) rotate(-9.17)"/><text class="cls-8" transform="translate(6.78 337.78) rotate(-84.49)">©<tspan class="cls-9" x="6.77" y="0">O</tspan><tspan x="12.97" y="0">pen </tspan><tspan class="cls-10" x="28.09" y="0">D</tspan><tspan x="34.07" y="0">igital </tspan><tspan class="cls-11" x="51.97" y="0">E</tspan><tspan x="56.4" y="0">duc</tspan><tspan class="cls-12" x="68.88" y="0">a</tspan><tspan x="72.66" y="0">tion</tspan></text></svg>